<?xml version="1.0" encoding="UTF-8" standalone="no"?>
<!-- Created with Inkscape (http://www.inkscape.org/) -->

<svg
   xmlns:dc="http://purl.org/dc/elements/1.1/"
   xmlns:cc="http://creativecommons.org/ns#"
   xmlns:rdf="http://www.w3.org/1999/02/22-rdf-syntax-ns#"
   xmlns:svg="http://www.w3.org/2000/svg"
   xmlns="http://www.w3.org/2000/svg"
   xmlns:sodipodi="http://sodipodi.sourceforge.net/DTD/sodipodi-0.dtd"
   xmlns:inkscape="http://www.inkscape.org/namespaces/inkscape"
   version="1.1"
   id="svg1291"
   xml:space="preserve"
   width="1000"
   height="1000"
   viewBox="0 0 1000 1000"
   sodipodi:docname="Alto.svg"
   inkscape:version="0.92.2 (5c3e80d, 2017-08-06)"
   inkscape:label="circle"><metadata
     id="metadata1297"><rdf:RDF><cc:Work
         rdf:about=""><dc:format>image/svg+xml</dc:format><dc:type
           rdf:resource="http://purl.org/dc/dcmitype/StillImage" /><dc:title></dc:title></cc:Work></rdf:RDF></metadata><defs
     id="defs1295"><clipPath
       clipPathUnits="userSpaceOnUse"
       id="clipPath1309"><path
         d="M 0,512 H 512 V 0 H 0 Z"
         id="path1307"
         inkscape:connector-curvature="0" /></clipPath></defs><sodipodi:namedview
     pagecolor="#ffffff"
     bordercolor="#666666"
     borderopacity="1"
     objecttolerance="10"
     gridtolerance="10"
     guidetolerance="10"
     inkscape:pageopacity="0"
     inkscape:pageshadow="2"
     inkscape:window-width="1920"
     inkscape:window-height="1017"
     id="namedview1293"
     showgrid="false"
     inkscape:zoom="0.48889804"
     inkscape:cx="336.53951"
     inkscape:cy="439.63604"
     inkscape:window-x="1272"
     inkscape:window-y="-8"
     inkscape:window-maximized="1"
     inkscape:current-layer="svg1291"
     fit-margin-top="0"
     fit-margin-left="0"
     fit-margin-right="0"
     fit-margin-bottom="0" /><circle
     style="opacity:1;fill:#9fd9cd;fill-opacity:1;fill-rule:nonzero;stroke:none;stroke-width:34.87042236;stroke-linecap:round;stroke-linejoin:round;stroke-miterlimit:4;stroke-dasharray:none;stroke-opacity:1"
     id="circle"
     cx="500"
     cy="-500"
     transform="scale(1,-1)"
     r="500" /><path
     sodipodi:nodetypes="ccccccccccccccccccccccccccccc"
     style="fill:#5e9286;fill-rule:evenodd;stroke:none;stroke-width:10.6312418;fill-opacity:1"
     inkscape:connector-curvature="0"
     d="m 300.11696,200 c -3.02356,0.19892 -2.87256,9.21719 -3.64635,17.04173 -1.71852,17.24379 -0.64294,16.14909 -17.46888,18.12613 -17.69281,1.39782 -23.76135,6.52379 -24.13591,13.50542 l 0.74724,268.37157 c 0.52528,207.08893 1.29682,269.36609 3.40176,273.03394 4.47657,7.80262 12.0349,8.66941 81.95431,9.41904 L 406.11781,800 c 7.75044,0.0135 5.64522,-116.71476 5.15643,-167.48919 -2.14829,-216.94093 -2.31779,-204.49176 3.24228,-233.66385 9.48501,-49.74354 34.88169,-92.62996 55.01911,-92.949 7.49283,-0.1155 8.35424,5.58164 2.86043,18.84935 -7.05174,16.98864 -11.06997,42.65265 -11.15451,71.17626 -0.0903,32.15928 -0.5246,31.72336 30.53425,31.70221 21.91949,-0.007 146.77466,8.13293 152.39958,9.93998 4.3049,1.38214 8.85228,45.04467 5.06853,48.58483 -6.08983,5.69817 -34.46446,18.94481 -61.82859,28.87457 -63.24651,22.95261 -61.89855,20.76279 -45.95754,74.30163 3.07854,10.35475 10.15149,45.236 15.71003,77.51212 4.47615,23.32585 4.61341,129.13668 25.96881,131.7849 l 72.1995,-0.59742 c 80.18122,-0.66117 79.81786,-0.60654 86.97262,-15.09852 4.1378,-8.36573 3.37544,-545.25355 0.007,-555.25782 -2.71314,-10.21671 -13.39882,-25.78209 -20.91232,-25.57884 M 483.31175,464.18839 c -12.0391,11.66817 -11.1826,8.53339 0,19.9336 11.95988,12.18338 12.73367,12.21539 24.09717,0.83984 11.11194,-11.09898 11.12307,-9.71705 -0.17299,-21.2411 -11.53419,-11.75817 -11.90357,-11.74759 -23.89743,0.46857"
     id="path0" /></svg>