<?xml version="1.0" encoding="UTF-8" standalone="no"?>
<!-- Created with Inkscape (http://www.inkscape.org/) -->

<svg
   xmlns:dc="http://purl.org/dc/elements/1.1/"
   xmlns:cc="http://creativecommons.org/ns#"
   xmlns:rdf="http://www.w3.org/1999/02/22-rdf-syntax-ns#"
   xmlns:svg="http://www.w3.org/2000/svg"
   xmlns="http://www.w3.org/2000/svg"
   xmlns:xlink="http://www.w3.org/1999/xlink"
   xmlns:sodipodi="http://sodipodi.sourceforge.net/DTD/sodipodi-0.dtd"
   xmlns:inkscape="http://www.inkscape.org/namespaces/inkscape"
   version="1.1"
   id="svg1291"
   xml:space="preserve"
   width="1000"
   height="1000"
   viewBox="0 0 1000 1000"
   sodipodi:docname="Alto_Alt.svg"
   inkscape:version="0.92.2 (5c3e80d, 2017-08-06)"
   inkscape:label="circle"><metadata
     id="metadata1297"><rdf:RDF><cc:Work
         rdf:about=""><dc:format>image/svg+xml</dc:format><dc:type
           rdf:resource="http://purl.org/dc/dcmitype/StillImage" /><dc:title></dc:title></cc:Work></rdf:RDF></metadata><defs
     id="defs1295"><linearGradient
       inkscape:collect="always"
       id="linearGradient5617"><stop
         style="stop-color:#b5dbbc;stop-opacity:0"
         offset="0"
         id="stop5613" /><stop
         style="stop-color:#7aa47f;stop-opacity:1"
         offset="1"
         id="stop5615" /></linearGradient><clipPath
       clipPathUnits="userSpaceOnUse"
       id="clipPath1309"><path
         d="M 0,512 H 512 V 0 H 0 Z"
         id="path1307"
         inkscape:connector-curvature="0" /></clipPath><linearGradient
       inkscape:collect="always"
       xlink:href="#linearGradient5617"
       id="linearGradient5621"
       x1="8.3496914"
       y1="163.70326"
       x2="126.50858"
       y2="111.53439"
       gradientUnits="userSpaceOnUse" /><linearGradient
       inkscape:collect="always"
       xlink:href="#linearGradient5617"
       id="linearGradient5635"
       gradientUnits="userSpaceOnUse"
       x1="8.3496914"
       y1="163.70326"
       x2="126.50858"
       y2="111.53439"
       gradientTransform="matrix(1.6666667,0,0,1.6666667,-98.504348,-94.793264)" /></defs><sodipodi:namedview
     pagecolor="#ffffff"
     bordercolor="#666666"
     borderopacity="1"
     objecttolerance="10"
     gridtolerance="10"
     guidetolerance="10"
     inkscape:pageopacity="0"
     inkscape:pageshadow="2"
     inkscape:window-width="1920"
     inkscape:window-height="1017"
     id="namedview1293"
     showgrid="false"
     inkscape:zoom="0.69140623"
     inkscape:cx="926.09082"
     inkscape:cy="510.64131"
     inkscape:window-x="1272"
     inkscape:window-y="-8"
     inkscape:window-maximized="1"
     inkscape:current-layer="layer1"
     fit-margin-top="0"
     fit-margin-left="0"
     fit-margin-right="0"
     fit-margin-bottom="0" /><circle
     style="opacity:1;fill:#e1fdd6;fill-opacity:1;fill-rule:nonzero;stroke:none;stroke-width:34.87042236;stroke-linecap:round;stroke-linejoin:round;stroke-miterlimit:4;stroke-dasharray:none;stroke-opacity:1"
     id="circle"
     cx="500"
     cy="-500"
     transform="scale(1,-1)"
     r="500" /><g
     inkscape:groupmode="layer"
     id="layer1"
     inkscape:label="guide"><g
       id="svgg"
       transform="matrix(1.996125,0,0,1.996125,264.99173,331.65728)"
       style="fill:url(#linearGradient5621);fill-opacity:1"><path
         d="m 212.30399,-23.556598 c -4.20334,1.84 -5.66667,6.178333 -3.43,10.158333 1.45166,2.583334 2.10333,2.96 11.30666,6.5283344 5.81,2.253333 11.79334,6.09333296 20.86334,13.388333 l 6.095,4.9016666 -2.02334,3.86 c -2.25166,4.296666 -2.53833,4.495 -3.45833,2.393333 -1.12167,-2.553333 -5.935,-4.535 -10.165,-4.185 -6.31333,0.523333 -21.435,8.493333 -22.76667,12 -0.35833,0.94 -2.48,3.778333 -4.715,6.306666 -7.88,8.915 -9.76666,11.945 -12.58833,20.208334 -2.07,6.065 -3.15667,16.778333 -2.23333,22.019999 0.86,4.888334 1.805,4.568334 -8.095,2.745 -58.06,-10.696666 -101.536675,3.746667 -160.783335,53.411669 -48.310004,40.5 -65.575004,48.325 -91.79667,41.60833 -7.186667,-1.84166 -6.693333,-2.3 -9.165,8.51167 l -2.005,8.76167 2.33,0.7 c 5.17,1.555 7.198333,1.92333 14.373333,2.61 30.175,2.89166 48.886667,-5.28 89.518337,-39.09834 30.2,-25.13499 41.06333,-33.15667 56.64166,-41.82666 31.428345,-17.491672 66.396675,-22.148339 103.690005,-13.810005 4.2,0.94 7.70333,1.77 7.78333,1.845 0.08,0.07333 -0.57,1.188335 -1.445,2.475005 -1.93666,2.85 -4.235,10.845 -4.235,14.73166 0,2.26333 -0.335,3.11167 -1.62666,4.13001 -6.62333,5.20833 19.9,16.39166 30.33833,12.79166 4.53,-1.56166 11.35833,-7.47833 11.99833,-10.395 0.22167,-1.005 1.68834,-3.25834 3.26,-5.00667 2.84334,-3.16333 4.13334,-11.52166 1.89334,-12.27833 -5.16667,-1.74333 -5.865,-5.01 -0.775,-3.62167 6.08333,1.65834 6.355,-5.348332 0.33166,-8.576665 -4.345,-2.33 -4.23,-1.913334 -2.06166,-7.468334 2.58166,-6.608333 3.09166,-7.136666 5.30666,-5.5 9.41,6.958334 15.865,4.121667 23.86,-10.481666 2.71667,-4.96 4.095,-6.845 5.11334,-6.993334 1.46166,-0.213333 6.18333,-7.319999 9.35833,-14.086666 l 1.62833,-3.466667 5.44834,0.441667 c 4.38166,0.355 5.73,0.243333 6.88333,-0.563333 2.20167,-1.541667 7.83333,3.711666 14.09333,13.143333 6.48834,9.776666 10.30834,11.586666 14.86,7.035 6.38,-6.38 -1.515,-21.673333 -17.755,-34.395 -7.795,-6.106666 -41.83,-33.4383326 -52.25833,-41.966666 -12.07,-9.87 -27.28167,-15.751667 -33.59333,-12.986667"
         id="path0"
         inkscape:connector-curvature="0"
         style="fill:url(#linearGradient5635);fill-opacity:1;fill-rule:evenodd;stroke:none;stroke-width:1.66666663" /></g></g></svg>