<?xml version="1.0" encoding="UTF-8" standalone="no"?>
<!-- Created with Inkscape (http://www.inkscape.org/) -->

<svg
   xmlns:dc="http://purl.org/dc/elements/1.1/"
   xmlns:cc="http://creativecommons.org/ns#"
   xmlns:rdf="http://www.w3.org/1999/02/22-rdf-syntax-ns#"
   xmlns:svg="http://www.w3.org/2000/svg"
   xmlns="http://www.w3.org/2000/svg"
   xmlns:sodipodi="http://sodipodi.sourceforge.net/DTD/sodipodi-0.dtd"
   xmlns:inkscape="http://www.inkscape.org/namespaces/inkscape"
   version="1.1"
   id="svg1291"
   xml:space="preserve"
   width="1000"
   height="1000"
   viewBox="0 0 1000 1000"
   sodipodi:docname="Authy.svg"
   inkscape:version="0.92.2 (5c3e80d, 2017-08-06)"
   inkscape:label="circle"><metadata
     id="metadata1297"><rdf:RDF><cc:Work
         rdf:about=""><dc:format>image/svg+xml</dc:format><dc:type
           rdf:resource="http://purl.org/dc/dcmitype/StillImage" /><dc:title></dc:title></cc:Work></rdf:RDF></metadata><defs
     id="defs1295"><clipPath
       clipPathUnits="userSpaceOnUse"
       id="clipPath1309"><path
         d="M 0,512 H 512 V 0 H 0 Z"
         id="path1307"
         inkscape:connector-curvature="0" /></clipPath></defs><sodipodi:namedview
     pagecolor="#ffffff"
     bordercolor="#666666"
     borderopacity="1"
     objecttolerance="10"
     gridtolerance="10"
     guidetolerance="10"
     inkscape:pageopacity="0"
     inkscape:pageshadow="2"
     inkscape:window-width="1920"
     inkscape:window-height="1017"
     id="namedview1293"
     showgrid="false"
     inkscape:zoom="0.34570312"
     inkscape:cx="506.80481"
     inkscape:cy="343.4993"
     inkscape:window-x="1272"
     inkscape:window-y="-8"
     inkscape:window-maximized="1"
     inkscape:current-layer="layer1"
     fit-margin-top="0"
     fit-margin-left="0"
     fit-margin-right="0"
     fit-margin-bottom="0" /><circle
     style="opacity:1;fill:#ec1c24;fill-opacity:1;fill-rule:nonzero;stroke:none;stroke-width:34.87042236;stroke-linecap:round;stroke-linejoin:round;stroke-miterlimit:4;stroke-dasharray:none;stroke-opacity:1"
     id="circle"
     cx="500"
     cy="-500"
     transform="scale(1,-1)"
     r="500" /><g
     inkscape:groupmode="layer"
     id="layer1"
     inkscape:label="guide"><g
       id="g845"
       transform="scale(3.90625)"><path
         id="path833"
         d="m 117.024,100.89 30.691,30.68 c 4.43,4.436 11.623,4.436 16.064,0 4.431,-4.435 4.441,-11.622 0,-16.058 L 133.086,84.82 C 111.125,62.854 75.631,62.5 53.204,83.704 a 9.536,9.536 0 0 0 -0.605,0.548 c -0.098,0.098 -0.178,0.202 -0.275,0.29 -0.1,0.096 -0.202,0.182 -0.297,0.278 -0.194,0.193 -0.371,0.396 -0.54,0.597 -21.215,22.437 -20.85,57.932 1.113,79.897 L 83.292,196 c 4.44,4.433 11.623,4.433 16.062,0 4.442,-4.437 4.442,-11.633 0.011,-16.06 L 68.672,149.249 C 55.274,135.856 55.184,114.12 68.394,100.612 c 13.506,-13.21 35.23,-13.114 48.63,0.279 z m 39.612,-40.873 c -4.435,4.437 -4.435,11.623 0.012,16.059 l 30.681,30.693 c 13.39,13.392 13.477,35.125 0.268,48.636 -13.51,13.2 -35.227,13.112 -48.623,-0.282 l -30.692,-30.689 c -4.438,-4.437 -11.633,-4.437 -16.066,0 -4.443,4.433 -4.443,11.642 0,16.065 l 30.682,30.694 c 21.968,21.965 57.458,22.322 79.889,1.116 0.208,-0.184 0.404,-0.355 0.61,-0.549 0.094,-0.095 0.182,-0.192 0.273,-0.29 0.1,-0.095 0.197,-0.183 0.29,-0.289 0.197,-0.183 0.365,-0.384 0.54,-0.594 21.215,-22.428 20.86,-57.911 -1.102,-79.889 L 172.706,60.016 c -4.436,-4.443 -11.638,-4.443 -16.07,0.001 z"
         inkscape:connector-curvature="0"
         style="fill:#cf1119;fill-opacity:1;stroke:none" /></g></g></svg>