<?xml version="1.0" encoding="UTF-8" standalone="no"?>
<!-- Created with Inkscape (http://www.inkscape.org/) -->

<svg
   xmlns:dc="http://purl.org/dc/elements/1.1/"
   xmlns:cc="http://creativecommons.org/ns#"
   xmlns:rdf="http://www.w3.org/1999/02/22-rdf-syntax-ns#"
   xmlns:svg="http://www.w3.org/2000/svg"
   xmlns="http://www.w3.org/2000/svg"
   xmlns:sodipodi="http://sodipodi.sourceforge.net/DTD/sodipodi-0.dtd"
   xmlns:inkscape="http://www.inkscape.org/namespaces/inkscape"
   version="1.1"
   id="svg1291"
   xml:space="preserve"
   width="1000"
   height="1000"
   viewBox="0 0 1000 1000"
   sodipodi:docname="Brave.svg"
   inkscape:version="0.92.3 (2405546, 2018-03-11)"
   inkscape:label="circle"><metadata
     id="metadata1297"><rdf:RDF><cc:Work
         rdf:about=""><dc:format>image/svg+xml</dc:format><dc:type
           rdf:resource="http://purl.org/dc/dcmitype/StillImage" /><dc:title></dc:title></cc:Work></rdf:RDF></metadata><defs
     id="defs1295"><clipPath
       clipPathUnits="userSpaceOnUse"
       id="clipPath1309"><path
         d="M 0,512 H 512 V 0 H 0 Z"
         id="path1307"
         inkscape:connector-curvature="0" /></clipPath><linearGradient
       id="linear-gradient"
       x1="168.37"
       y1="199.89999"
       x2="289.95999"
       y2="199.89999"
       gradientUnits="userSpaceOnUse"><stop
         offset="0"
         stop-color="#f1562b"
         id="stop4" /><stop
         offset="0.3"
         stop-color="#f1542b"
         id="stop6" /><stop
         offset="0.41"
         stop-color="#f04d2a"
         id="stop8" /><stop
         offset="0.49"
         stop-color="#ef4229"
         id="stop10" /><stop
         offset="0.5"
         stop-color="#ef4029"
         id="stop12" /><stop
         offset="0.56"
         stop-color="#e83e28"
         id="stop14" /><stop
         offset="0.67"
         stop-color="#e13c26"
         id="stop16" /><stop
         offset="1"
         stop-color="#df3c26"
         id="stop18" /></linearGradient></defs><sodipodi:namedview
     pagecolor="#ffffff"
     bordercolor="#666666"
     borderopacity="1"
     objecttolerance="10"
     gridtolerance="10"
     guidetolerance="10"
     inkscape:pageopacity="0"
     inkscape:pageshadow="2"
     inkscape:window-width="1920"
     inkscape:window-height="1017"
     id="namedview1293"
     showgrid="false"
     inkscape:zoom="0.24444902"
     inkscape:cx="456.59416"
     inkscape:cy="354.848"
     inkscape:window-x="1272"
     inkscape:window-y="-8"
     inkscape:window-maximized="1"
     inkscape:current-layer="layer1"
     fit-margin-top="0"
     fit-margin-left="0"
     fit-margin-right="0"
     fit-margin-bottom="0"
     showguides="true"
     inkscape:guide-bbox="true" /><g
     inkscape:groupmode="layer"
     id="layer1"
     inkscape:label="guide"><path
       inkscape:connector-curvature="0"
       class="cls-2"
       d="m 914.80597,323.97778 -30.8353,-83.74774 21.4438,-48.07797 a 16.469586,16.469586 0 0 0 -3.3656,-18.29199 l -58.3089,-58.94255 A 94.121759,94.121759 0 0 0 745.62414,92.143589 l -16.3282,5.67364 L 640.21916,1.3127695 489.11946,0.47352949 h -0.98192 L 336.06009,1.6652295 247.05055,98.941729 231.21333,93.335409 a 94.402075,94.402075 0 0 0 -98.74526,22.983701 l -59.362336,60.06313 a 13.105589,13.105589 0 0 0 -2.66486,14.57815 l 22.35856,49.89927 -30.69658,83.6802 19.83194,75.47644 90.478636,343.97012 a 175.20826,175.20826 0 0 0 67.7718,98.11581 c 0,0 109.8196,77.44436 218.17027,147.8055 a 48.357441,48.357441 0 0 0 60.34018,0 C 640.42906,910.15511 736.72362,841.82115 736.72362,841.82115 a 175.20826,175.20826 0 0 0 67.70035,-98.11587 l 89.9875,-344.10856 z"
       id="path35"
       style="stroke-width:7.00832796;fill:#ff5500;fill-opacity:1" /><path
       inkscape:connector-curvature="0"
       class="cls-1"
       d="m 513.37058,620.36064 a 129.09326,129.09326 0 0 0 -17.80116,-6.44996 h -10.72608 a 129.09326,129.09326 0 0 0 -17.80102,6.44996 l -26.97876,11.21276 c -8.55218,3.57528 -22.2869,9.95358 -30.48662,14.01594 l -49.61841,25.86238 a 9.4612325,9.4612325 0 0 0 -1.19162,17.52002 l 43.10121,30.41538 c 7.5661,5.32524 19.4796,14.71678 26.49164,21.02396 l 12.12358,10.44486 c 7.00798,6.02598 18.43058,16.047 25.36716,22.21554 l 11.4939,10.16372 a 19.763462,19.763462 0 0 0 25.3001,0 l 12.0562,-10.5162 25.37154,-22.14426 12.19458,-10.6547 c 7.00804,-6.09734 18.85014,-15.48496 26.42046,-21.0239 l 43.10112,-30.83516 a 9.3911515,9.3911515 0 0 0 -1.33032,-17.45276 l -49.55094,-25.15738 c -8.27084,-4.2048 -22.0059,-10.51218 -30.62514,-14.01614 z"
       id="path37"
       style="stroke-width:7.00832796;fill:#d84800;fill-opacity:1" /><path
       inkscape:connector-curvature="0"
       class="cls-1"
       d="m 818.93097,342.68942 1.4016,-4.48596 a 118.02023,118.02023 0 0 0 -1.1205,-17.93958 151.16963,151.16963 0 0 0 -15.9798,-30.13458 l -28.03191,-41.14112 c -5.1868,-7.70874 -14.016,-19.90352 -19.97484,-27.12132 l -37.56212,-47.0249 a 131.33621,131.33621 0 0 0 -11.14546,-13.03815 h -0.77218 c 0,0 -7.56604,1.33446 -16.67658,3.08444 l -57.39834,11.07421 -25.16138,4.83428 A 65.387707,65.387707 0 0 1 581.91008,177.2214 L 536.5681,162.57605 c -8.8334,-2.87462 -23.40748,-7.0079 -32.4507,-8.97196 a 135.61109,135.61109 0 0 0 -28.66154,0 c -9.04302,2.10236 -23.6213,6.1688 -32.45056,9.04314 l -45.34212,14.71687 a 65.387707,65.387707 0 0 1 -24.59919,3.5752 l -25.16152,-4.76696 -57.46964,-11.00289 c -9.11034,-1.75424 -16.60928,-3.15582 -16.67666,-3.08436 h -0.77198 a 131.33621,131.33621 0 0 0 -11.14558,13.03393 l -37.4948,47.02886 c -5.7449,7.00804 -14.78378,19.48382 -19.97058,27.12152 l -28.03614,41.13718 a 220.4118,220.4118 0 0 0 -13.2439,22.07722 100.35927,100.35927 0 0 0 -3.78522,26.07206 l 1.40172,4.48602 a 66.509025,66.509025 0 0 0 2.59334,8.47674 c 5.8162,7.0119 15.7701,18.64464 22.14452,25.4428 l 98.12002,104.28454 a 28.033296,28.033296 0 0 1 4.97264,28.0318 l -16.04706,38.057 a 49.408721,49.408721 0 0 0 -0.77196,31.32626 l 3.2228,8.82934 a 85.151133,85.151133 0 0 0 26.14346,36.65536 l 15.41764,12.5431 a 29.154656,29.154656 0 0 0 28.03186,3.36546 l 54.80495,-26.1436 a 139.32573,139.32573 0 0 0 28.03612,-18.5692 l 43.86904,-39.5971 a 17.590906,17.590906 0 0 0 0.91468,-25.2327 l -99.03057,-66.71862 a 19.202825,19.202825 0 0 1 -6.02602,-24.31796 l 38.40541,-72.18638 a 37.494549,37.494549 0 0 0 1.89256,-28.6616 43.802043,43.802043 0 0 0 -21.79609,-19.7649 L 265.20411,273.37766 c -8.69068,-3.29418 -8.19978,-7.00796 0.98194,-7.57032 l 70.71354,-7.00796 a 109.11968,109.11968 0 0 1 33.00872,2.94566 l 61.53175,17.16756 a 18.852385,18.852385 0 0 1 13.17678,21.02802 l -24.17966,132.03554 a 68.261081,68.261081 0 0 0 -1.19182,22.28698 c 0.982,3.15148 9.2531,7.00796 18.29212,9.24884 l 37.49474,7.98982 a 91.108329,91.108329 0 0 0 32.94178,0 l 33.70958,-7.6373 c 9.03888,-2.03112 17.23868,-6.30718 18.29206,-9.46292 a 68.191003,68.191003 0 0 0 -1.2632,-22.28712 L 534.3944,300.07934 a 18.852385,18.852385 0 0 1 13.17672,-21.02404 l 61.53168,-17.24294 a 109.0496,109.0496 0 0 1 33.00898,-2.94166 l 70.71334,6.58826 c 9.25298,0.83936 9.67268,4.27598 1.05324,7.57004 L 593.5427,318.6524 a 43.802043,43.802043 0 0 0 -21.79606,19.7609 37.564649,37.564649 0 0 0 1.8926,28.6656 l 38.4766,72.18636 a 19.202825,19.202825 0 0 1 -6.02616,24.31804 l -98.95924,66.86112 a 17.590906,17.590906 0 0 0 0.91062,25.22878 l 43.94462,39.59724 a 139.32573,139.32573 0 0 0 28.03186,18.50194 l 54.805,26.072 a 29.154656,29.154656 0 0 0 28.03586,-3.43682 l 15.41764,-12.6143 a 85.081055,85.081055 0 0 0 26.13952,-36.72256 l 3.22282,-8.82958 a 49.408721,49.408721 0 0 0 -0.76818,-31.32994 l -16.1223,-38.053 a 28.033296,28.033296 0 0 1 4.97698,-28.03594 l 98.1158,-104.42318 c 6.37856,-7.00796 16.26099,-18.22068 22.07729,-25.43854 a 66.509025,66.509025 0 0 0 3.013,-8.2711 z"
       id="path39"
       style="stroke-width:7.00832796;fill:#d84800;fill-opacity:1" /></g></svg>