<?xml version="1.0" encoding="UTF-8" standalone="no"?>
<!-- Generator: Adobe Illustrator 18.0.0, SVG Export Plug-In . SVG Version: 6.00 Build 0)  -->

<svg
   xmlns:dc="http://purl.org/dc/elements/1.1/"
   xmlns:cc="http://creativecommons.org/ns#"
   xmlns:rdf="http://www.w3.org/1999/02/22-rdf-syntax-ns#"
   xmlns:svg="http://www.w3.org/2000/svg"
   xmlns="http://www.w3.org/2000/svg"
   xmlns:sodipodi="http://sodipodi.sourceforge.net/DTD/sodipodi-0.dtd"
   xmlns:inkscape="http://www.inkscape.org/namespaces/inkscape"
   version="1.1"
   id="Layer_1"
   x="0px"
   y="0px"
   viewBox="0 0 350.00001 350.00001"
   enable-background="new 0 0 215.9 193.7"
   xml:space="preserve"
   sodipodi:docname="Genius.svg"
   width="350"
   height="350"
   inkscape:version="0.92.2 (5c3e80d, 2017-08-06)"><metadata
     id="metadata15"><rdf:RDF><cc:Work
         rdf:about=""><dc:format>image/svg+xml</dc:format><dc:type
           rdf:resource="http://purl.org/dc/dcmitype/StillImage" /><dc:title></dc:title></cc:Work></rdf:RDF></metadata><defs
     id="defs13" /><sodipodi:namedview
     pagecolor="#ffffff"
     bordercolor="#666666"
     borderopacity="1"
     objecttolerance="10"
     gridtolerance="10"
     guidetolerance="10"
     inkscape:pageopacity="0"
     inkscape:pageshadow="2"
     inkscape:window-width="1920"
     inkscape:window-height="1017"
     id="namedview11"
     showgrid="false"
     inkscape:zoom="0.60918948"
     inkscape:cx="255.15562"
     inkscape:cy="96.642972"
     inkscape:window-x="1272"
     inkscape:window-y="-8"
     inkscape:window-maximized="1"
     inkscape:current-layer="Layer_1"
     fit-margin-top="0"
     fit-margin-left="0"
     fit-margin-right="0"
     fit-margin-bottom="0" /><circle
     style="opacity:1;fill:#ffff64;fill-opacity:1;fill-rule:nonzero;stroke:none;stroke-width:0.11845351;stroke-linecap:square;stroke-linejoin:round;stroke-miterlimit:4;stroke-dasharray:none;stroke-opacity:1"
     id="path825"
     cx="175"
     cy="175"
     r="175" /><g
     id="g8"
     transform="matrix(0.99628995,0,0,1,80,101.2)"
     style="fill:#d9d912;fill-opacity:1"><path
       d="m 31.1,108.2 c 0.3,0.2 0.7,0.3 1.1,0.3 1.1,0 2.1,-0.9 2.1,-2.1 0,-0.3 -0.1,-0.5 -0.1,-0.7 v 0 c -2.9,-7.9 -4.5,-16.4 -4.5,-25.3 0,-19.8 8,-37.9 20.8,-51.1 0,0 0.1,-0.1 0.1,-0.1 0,0 0.1,-0.1 0.1,-0.1 v 0 c 0.3,-0.4 0.4,-0.8 0.4,-1.3 0,0 0,0 0,0 v 0 V 2.1 C 51,0.9 50.1,0 49,0 H 23.2 v 0 c -0.6,0 -1.1,0.3 -1.5,0.7 -0.5,0.5 -1,1 -1.6,1.5 C 7.7,14.6 0,31.8 0,50.8 c 0,19 7.7,36.1 20.1,48.6 3.3,3.2 7,6.2 11,8.8 z"
       id="path2"
       inkscape:connector-curvature="0"
       style="fill:#d9d912;fill-opacity:1" /><path
       d="m 79.2,54.5 v 0 c -1.1,0.1 -1.9,1 -1.9,2.1 0,0.1 0,0.1 0,0.2 v 0 c 0,0.1 0,0.1 0,0.2 0,0 0,0 0,0 0.5,5.7 2.8,10.8 6.4,14.9 0,0 0.1,0.1 0.1,0.1 0.2,0.2 0.4,0.5 0.7,0.7 0.1,0.1 0.1,0.1 0.2,0.2 0.2,0.2 0.4,0.4 0.6,0.6 0.1,0.1 0.2,0.2 0.2,0.2 0.2,0.2 0.4,0.4 0.6,0.6 0.1,0.1 0.2,0.2 0.3,0.3 0.2,0.2 0.4,0.3 0.6,0.5 0.1,0.1 0.2,0.2 0.3,0.3 0.2,0.2 0.4,0.3 0.6,0.5 0.1,0.1 0.3,0.2 0.4,0.3 0.2,0.1 0.4,0.3 0.6,0.4 0.1,0.1 0.3,0.2 0.4,0.3 0.2,0.1 0.4,0.2 0.6,0.4 0.2,0.1 0.3,0.2 0.5,0.3 0.2,0.1 0.4,0.2 0.6,0.3 0.2,0.1 0.3,0.2 0.5,0.3 0.2,0.1 0.4,0.2 0.6,0.3 0.2,0.1 0.4,0.2 0.5,0.2 0.2,0.1 0.4,0.2 0.6,0.3 0.2,0.1 0.4,0.2 0.6,0.2 0.2,0.1 0.4,0.1 0.6,0.2 0.2,0.1 0.4,0.1 0.6,0.2 0.2,0.1 0.4,0.1 0.6,0.2 0.2,0.1 0.4,0.1 0.7,0.2 0.2,0.1 0.4,0.1 0.6,0.2 0.2,0.1 0.5,0.1 0.7,0.2 0.2,0 0.4,0.1 0.5,0.1 0.2,0 0.5,0.1 0.7,0.1 0.2,0 0.3,0.1 0.5,0.1 0.3,0 0.5,0.1 0.8,0.1 0.2,0 0.3,0 0.5,0.1 0.3,0 0.6,0.1 0.9,0.1 0.1,0 0.2,0 0.4,0 0.4,0 0.9,0 1.3,0 0,0 0,0 0,0 0,0 0,0 0,0 0.2,0 0.3,0 0.5,0 14.2,-0.3 25.6,-11.9 25.6,-26.1 V 41.8 35.5 c 0,-1.1 0.9,-2.1 2.1,-2.1 h 7.2 c 1.1,0 2.1,-0.9 2.1,-2.1 0,-0.2 0,-0.4 -0.1,-0.5 C 138.2,19.6 133.2,9.3 126.2,0.7 v 0 c -0.4,-0.5 -0.9,-0.8 -1.6,-0.8 0,0 -0.1,0 -0.1,0 v 0 h -8.9 -1.7 -8.5 c -1.1,0 -2.1,0.9 -2.1,2.1 v 17 5.6 3.7 0 0 c 0,13.9 -10.6,25.2 -24.1,26.2 z"
       id="path4"
       inkscape:connector-curvature="0"
       style="fill:#d9d912;fill-opacity:1" /><path
       d="m 184.6,2.1 c -0.4,-0.5 -0.9,-0.7 -1.6,-0.7 -1.1,0 -2.1,0.9 -2.1,2.1 0,0.2 0,0.4 0.1,0.6 v 0 c 0,0 0,0.1 0.1,0.1 0,0 0,0 0,0 5.2,13.4 8.1,28.2 8.1,43.4 0,66 -53.5,119.5 -119.5,119.5 -15.3,0 -30,-2.9 -43.4,-8.2 v 0 c -0.2,-0.1 -0.5,-0.1 -0.8,-0.1 -1.1,0 -2.1,0.9 -2.1,2.1 0,0.7 0.3,1.2 0.8,1.6 v 0 c 20.4,19.4 47.8,31.3 78.2,31.3 62.6,0 113.4,-50.8 113.4,-113.4 0.1,-30.5 -11.7,-58 -31.2,-78.3 z"
       id="path6"
       inkscape:connector-curvature="0"
       style="fill:#d9d912;fill-opacity:1" /></g></svg>