<?xml version="1.0" encoding="UTF-8" standalone="no"?>
<!-- Created with Inkscape (http://www.inkscape.org/) -->

<svg
   xmlns:dc="http://purl.org/dc/elements/1.1/"
   xmlns:cc="http://creativecommons.org/ns#"
   xmlns:rdf="http://www.w3.org/1999/02/22-rdf-syntax-ns#"
   xmlns:svg="http://www.w3.org/2000/svg"
   xmlns="http://www.w3.org/2000/svg"
   xmlns:sodipodi="http://sodipodi.sourceforge.net/DTD/sodipodi-0.dtd"
   xmlns:inkscape="http://www.inkscape.org/namespaces/inkscape"
   version="1.1"
   id="svg1291"
   xml:space="preserve"
   width="1000"
   height="1000"
   viewBox="0 0 1000 1000"
   sodipodi:docname="Github.svg"
   inkscape:version="0.92.2 (5c3e80d, 2017-08-06)"
   inkscape:label="circle"><metadata
     id="metadata1297"><rdf:RDF><cc:Work
         rdf:about=""><dc:format>image/svg+xml</dc:format><dc:type
           rdf:resource="http://purl.org/dc/dcmitype/StillImage" /><dc:title></dc:title></cc:Work></rdf:RDF></metadata><defs
     id="defs1295"><clipPath
       clipPathUnits="userSpaceOnUse"
       id="clipPath1309"><path
         d="M 0,512 H 512 V 0 H 0 Z"
         id="path1307"
         inkscape:connector-curvature="0" /></clipPath></defs><sodipodi:namedview
     pagecolor="#ffffff"
     bordercolor="#666666"
     borderopacity="1"
     objecttolerance="10"
     gridtolerance="10"
     guidetolerance="10"
     inkscape:pageopacity="0"
     inkscape:pageshadow="2"
     inkscape:window-width="1920"
     inkscape:window-height="1017"
     id="namedview1293"
     showgrid="false"
     inkscape:zoom="0.69140623"
     inkscape:cx="395.07844"
     inkscape:cy="528.97726"
     inkscape:window-x="1272"
     inkscape:window-y="-8"
     inkscape:window-maximized="1"
     inkscape:current-layer="layer1"
     fit-margin-top="0"
     fit-margin-left="0"
     fit-margin-right="0"
     fit-margin-bottom="0" /><circle
     style="opacity:1;fill:#464646;fill-opacity:1;fill-rule:nonzero;stroke:none;stroke-width:34.87042236;stroke-linecap:round;stroke-linejoin:round;stroke-miterlimit:4;stroke-dasharray:none;stroke-opacity:1"
     id="circle"
     cx="500"
     cy="-500"
     transform="scale(1,-1)"
     r="500" /><g
     inkscape:groupmode="layer"
     id="layer1"
     inkscape:label="guide"><path
       id="path937"
       d="m 500,207.39696 c -165.67392,0 -300,134.32626 -300,300 0,132.56844 85.95,244.99513 205.16971,284.65548 14.99646,2.74687 20.47118,-6.51843 20.47118,-14.42853 0,-7.14141 -0.27463,-30.79815 -0.42129,-55.84707 -83.42262,18.12717 -101.05578,-35.37593 -101.05578,-35.37593 -13.65962,-34.64359 -33.30708,-43.87212 -33.30708,-43.87212 -27.26441,-18.60349 2.06817,-18.2373 2.06817,-18.2373 30.1207,2.08712 45.97863,30.90825 45.97863,30.90825 26.77038,45.84966 70.23912,32.59284 87.30471,24.90236 2.72675,-19.33598 10.49056,-32.59284 19.04274,-40.06338 C 378.65571,632.45832 308.6,606.71338 308.6,491.7595 c 0,-32.7762 11.70058,-59.50893 30.85321,-80.51128 -3.058,-7.61717 -13.38519,-38.14103 2.9658,-79.43085 0,0 25.1591,-8.05665 82.50707,30.76171 23.91349,-6.6832 49.56684,-9.97911 75.07333,-10.08927 25.48821,0.1101 51.15924,3.44237 75.11009,10.1256 57.23906,-38.85469 82.43434,-30.76171 82.43434,-30.76171 16.40604,41.32674 6.07922,71.81355 3.00294,79.39452 19.22444,21.00235 30.83493,47.73567 30.83493,80.51128 0,115.24682 -70.1658,140.62497 -136.99895,148.05935 10.80353,9.30177 20.36108,27.53905 20.36108,55.51758 0,40.10052 -0.40302,72.43663 -0.40302,82.32424 0,7.98342 5.45622,17.32145 20.65439,14.39177 C 714.12335,752.31885 800,639.89209 800,507.39696 c 0,-165.67374 -134.32608,-300 -300,-300 z"
       inkscape:connector-curvature="0"
       style="fill:#282828;fill-opacity:1;stroke-width:0.58593839" /></g></svg>