<?xml version="1.0" encoding="UTF-8" standalone="no"?>
<!-- Created with Inkscape (http://www.inkscape.org/) -->

<svg
   xmlns:dc="http://purl.org/dc/elements/1.1/"
   xmlns:cc="http://creativecommons.org/ns#"
   xmlns:rdf="http://www.w3.org/1999/02/22-rdf-syntax-ns#"
   xmlns:svg="http://www.w3.org/2000/svg"
   xmlns="http://www.w3.org/2000/svg"
   xmlns:sodipodi="http://sodipodi.sourceforge.net/DTD/sodipodi-0.dtd"
   xmlns:inkscape="http://www.inkscape.org/namespaces/inkscape"
   version="1.1"
   id="svg1291"
   xml:space="preserve"
   width="1000"
   height="1000"
   viewBox="0 0 1000 1000"
   sodipodi:docname="Github_Detailed.svg"
   inkscape:version="0.92.4 (5da689c313, 2019-01-14)"
   inkscape:label="circle"><metadata
     id="metadata1297"><rdf:RDF><cc:Work
         rdf:about=""><dc:format>image/svg+xml</dc:format><dc:type
           rdf:resource="http://purl.org/dc/dcmitype/StillImage" /><dc:title></dc:title></cc:Work></rdf:RDF></metadata><defs
     id="defs1295"><clipPath
       clipPathUnits="userSpaceOnUse"
       id="clipPath1309"><path
         d="M 0,512 H 512 V 0 H 0 Z"
         id="path1307"
         inkscape:connector-curvature="0" /></clipPath></defs><sodipodi:namedview
     pagecolor="#ffffff"
     bordercolor="#666666"
     borderopacity="1"
     objecttolerance="10"
     gridtolerance="10"
     guidetolerance="10"
     inkscape:pageopacity="0"
     inkscape:pageshadow="2"
     inkscape:window-width="958"
     inkscape:window-height="1008"
     id="namedview1293"
     showgrid="false"
     inkscape:zoom="0.34570311"
     inkscape:cx="604.66099"
     inkscape:cy="418.82822"
     inkscape:window-x="1273"
     inkscape:window-y="0"
     inkscape:window-maximized="0"
     inkscape:current-layer="svg1291"
     fit-margin-top="0"
     fit-margin-left="0"
     fit-margin-right="0"
     fit-margin-bottom="0" /><circle
     style="opacity:1;fill:#22262a;fill-opacity:1;fill-rule:nonzero;stroke:none;stroke-width:34.87042236;stroke-linecap:round;stroke-linejoin:round;stroke-miterlimit:4;stroke-dasharray:none;stroke-opacity:1"
     id="circle-2"
     cx="500"
     cy="-500"
     transform="scale(1,-1)"
     r="500" /><path
     style="opacity:1;fill:#5a5a5a;fill-opacity:1;fill-rule:nonzero;stroke:none;stroke-width:34.87042236;stroke-linecap:round;stroke-linejoin:round;stroke-miterlimit:4;stroke-dasharray:none;stroke-opacity:1"
     d="M 239.49609 209.53711 C 232.38102 209.62742 228.95898 210.72461 228.95898 210.72461 C 200.83507 281.74362 218.59762 334.24407 223.85742 347.3457 C 190.91465 383.47001 170.78906 429.45069 170.78906 485.82617 C 170.78906 683.54829 291.28536 727.83075 405.83008 740.86914 C 391.12022 753.71856 377.76817 776.51921 373.07812 809.77734 C 343.7251 823.00506 268.9575 845.80731 222.91211 766.94531 C 222.91211 766.94531 195.63611 717.37308 143.82812 713.7832 C 143.82812 713.7832 93.376358 713.15215 140.27148 745.15039 C 140.27148 745.15039 174.06387 761.02392 197.55859 820.61133 C 197.55859 820.61133 227.88899 912.63794 371.37695 881.45898 C 371.62921 924.54343 372.10156 965.23427 372.10156 977.51758 C 372.10156 979.31455 371.93246 981.15124 371.58789 982.97656 A 500 500 0 0 0 500 1000 A 500 500 0 0 0 628.29883 982.63672 C 628.00965 980.94474 627.86719 979.24532 627.86719 977.58008 C 627.86719 960.57326 628.56055 904.95387 628.56055 835.98047 C 628.56055 787.85704 612.12127 756.48939 593.53906 740.49023 C 708.49292 727.703 829.17969 684.05215 829.17969 485.82617 C 829.17969 429.45171 809.20886 383.47001 776.14258 347.3457 C 781.43382 334.30634 799.19516 281.86963 770.97656 210.78711 C 770.97656 210.78711 727.64135 196.86672 629.18945 263.69727 C 587.99368 252.20203 543.83809 246.47063 499.99805 246.28125 C 456.12656 246.47073 412.00259 252.13958 370.87109 263.63477 C 299.97415 215.64522 257.67907 209.30632 239.49609 209.53711 z "
     id="circle"
     inkscape:label="cat" /><g
     inkscape:groupmode="layer"
     id="layer1"
     inkscape:label="guide" /><g
     transform="matrix(8.2866516,0,0,-8.4129196,-2411.7907,4162.0172)"
     id="g1181"><g
       transform="translate(350.6088,493.5547)"
       id="g26" /><g
       transform="translate(313.0932,406.8515)"
       id="g30"><path
         id="path32"
         style="fill:#1b1817;fill-opacity:1;fill-rule:nonzero;stroke:none"
         d="m 0,0 c -0.133,-0.301 -0.605,-0.391 -1.035,-0.185 -0.439,0.198 -0.684,0.607 -0.542,0.908 0.13,0.308 0.602,0.394 1.04,0.188 C -0.099,0.714 0.151,0.301 0,0"
         inkscape:connector-curvature="0" /></g><g
       transform="translate(315.5395,404.123)"
       id="g34"><path
         id="path36"
         style="fill:#1b1817;fill-opacity:1;fill-rule:nonzero;stroke:none"
         d="M 0,0 C -0.288,-0.267 -0.852,-0.143 -1.233,0.279 -1.629,0.7 -1.702,1.264 -1.41,1.534 -1.113,1.801 -0.567,1.676 -0.172,1.255 0.224,0.829 0.301,0.271 0,0"
         inkscape:connector-curvature="0" /></g><g
       transform="translate(317.9204,400.6455)"
       id="g38"><path
         id="path40"
         style="fill:#1b1817;fill-opacity:1;fill-rule:nonzero;stroke:none"
         d="M 0,0 C -0.37,-0.258 -0.976,-0.017 -1.35,0.52 -1.72,1.058 -1.72,1.702 -1.341,1.96 -0.967,2.218 -0.37,1.985 0.009,1.453 0.378,0.907 0.378,0.263 0,0"
         inkscape:connector-curvature="0" /></g><g
       transform="translate(321.1821,397.2851)"
       id="g42"><path
         id="path44"
         style="fill:#1b1817;fill-opacity:1;fill-rule:nonzero;stroke:none"
         d="M 0,0 C -0.331,-0.365 -1.036,-0.267 -1.552,0.232 -2.08,0.718 -2.227,1.409 -1.896,1.774 -1.56,2.14 -0.851,2.037 -0.331,1.543 0.193,1.057 0.352,0.361 0,0"
         inkscape:connector-curvature="0" /></g><g
       transform="translate(325.6821,395.334)"
       id="g46"><path
         id="path48"
         style="fill:#1b1817;fill-opacity:1;fill-rule:nonzero;stroke:none"
         d="m 0,0 c -0.147,-0.473 -0.825,-0.687 -1.509,-0.486 -0.683,0.207 -1.13,0.76 -0.992,1.238 0.142,0.476 0.824,0.7 1.513,0.485 C -0.306,1.031 0.142,0.481 0,0"
         inkscape:connector-curvature="0" /></g><g
       transform="translate(330.6245,394.9726)"
       id="g50"><path
         id="path52"
         style="fill:#1b1817;fill-opacity:1;fill-rule:nonzero;stroke:none"
         d="m 0,0 c 0.017,-0.498 -0.563,-0.911 -1.281,-0.92 -0.722,-0.016 -1.307,0.387 -1.315,0.877 0,0.503 0.568,0.911 1.289,0.924 C -0.589,0.895 0,0.494 0,0"
         inkscape:connector-curvature="0" /></g><g
       transform="translate(335.2231,395.7549)"
       id="g54"><path
         id="path56"
         style="fill:#1b1817;fill-opacity:1;fill-rule:nonzero;stroke:none"
         d="m 0,0 c 0.086,-0.485 -0.413,-0.984 -1.126,-1.117 -0.701,-0.129 -1.35,0.172 -1.439,0.653 -0.087,0.498 0.42,0.997 1.121,1.126 C -0.73,0.786 -0.091,0.494 0,0"
         inkscape:connector-curvature="0" /></g></g></svg>