<?xml version="1.0" encoding="UTF-8" standalone="no"?>
<!-- Created with Inkscape (http://www.inkscape.org/) -->

<svg
   xmlns:dc="http://purl.org/dc/elements/1.1/"
   xmlns:cc="http://creativecommons.org/ns#"
   xmlns:rdf="http://www.w3.org/1999/02/22-rdf-syntax-ns#"
   xmlns:svg="http://www.w3.org/2000/svg"
   xmlns="http://www.w3.org/2000/svg"
   xmlns:sodipodi="http://sodipodi.sourceforge.net/DTD/sodipodi-0.dtd"
   xmlns:inkscape="http://www.inkscape.org/namespaces/inkscape"
   version="1.1"
   id="svg1291"
   xml:space="preserve"
   width="1000"
   height="1000"
   viewBox="0 0 1000 1000"
   sodipodi:docname="inset.svg"
   inkscape:version="0.92.2 (5c3e80d, 2017-08-06)"
   inkscape:label="joint"><metadata
     id="metadata1297"><rdf:RDF><cc:Work
         rdf:about=""><dc:format>image/svg+xml</dc:format><dc:type
           rdf:resource="http://purl.org/dc/dcmitype/StillImage" /><dc:title></dc:title></cc:Work></rdf:RDF></metadata><defs
     id="defs1295"><clipPath
       clipPathUnits="userSpaceOnUse"
       id="clipPath1309"><path
         d="M 0,512 H 512 V 0 H 0 Z"
         id="path1307"
         inkscape:connector-curvature="0" /></clipPath><style
       id="style1005">.cls-1{fill:#d5d5d4;}</style></defs><sodipodi:namedview
     pagecolor="#ffffff"
     bordercolor="#666666"
     borderopacity="1"
     objecttolerance="10"
     gridtolerance="10"
     guidetolerance="10"
     inkscape:pageopacity="0"
     inkscape:pageshadow="2"
     inkscape:window-width="1920"
     inkscape:window-height="1017"
     id="namedview1293"
     showgrid="false"
     inkscape:zoom="0.25"
     inkscape:cx="710.50293"
     inkscape:cy="331.20448"
     inkscape:window-x="1272"
     inkscape:window-y="-8"
     inkscape:window-maximized="1"
     inkscape:current-layer="svg1291"
     fit-margin-top="0"
     fit-margin-left="0"
     fit-margin-right="0"
     fit-margin-bottom="0" /><circle
     style="opacity:1;fill:#b388ff;fill-opacity:1;fill-rule:nonzero;stroke:none;stroke-width:34.87042236;stroke-linecap:round;stroke-linejoin:round;stroke-miterlimit:4;stroke-dasharray:none;stroke-opacity:1"
     id="circle"
     cx="500"
     cy="-500"
     transform="scale(1,-1)"
     r="500" /><g
     id="g1056"
     transform="matrix(20.28589,0,0,20.28589,205.99473,240.88466)"
     style="fill:#9a61ff;fill-opacity:1"><path
       style="fill:#9a61ff;fill-opacity:1"
       inkscape:connector-curvature="0"
       class="cls-1"
       d="M 28,5.34 19.45,8.63 A 1.26,1.26 0 0 1 17.86,8 L 17.13,6.44 A 1,1 0 0 1 17.5,5.16 L 25,0.35 a 2.23,2.23 0 0 1 3.09,0.7 L 29,2.45 a 2,2 0 0 1 -1,2.89"
       id="path1015" /><path
       sodipodi:nodetypes="ccccccccccc"
       inkscape:connector-curvature="0"
       id="polygon1011"
       d="m 14.6,8.24 v 0.48 5.42 l -2.13625,2.6425 C 13.840279,16.198841 14.871844,15.54979 16.25,14.97 V 14.44 9.19 L 19.55,7.29 18.72,5.86 15.01,8 Z"
       style="fill:#9a61ff;fill-opacity:1" /><path
       sodipodi:nodetypes="ccccccc"
       style="fill:#9a61ff;fill-opacity:1"
       inkscape:connector-curvature="0"
       class="cls-1"
       d="M 20.624554,18.565531 C 12.410683,13.426451 15.695959,16.522698 10.39,10.66 9.621666,10.092276 8.535189,10.278659 8,11.07 l -7.62,11 c -1.9919892,2.508582 0.8853127,3.789205 2.65,3.41 l 17.14,-4.61 c 1.044125,-0.2827 1.315077,-1.637459 0.46,-2.3"
       id="path1013" /></g></svg>