<?xml version="1.0" encoding="UTF-8" standalone="no"?>
<!-- Created with Inkscape (http://www.inkscape.org/) -->

<svg
   xmlns:dc="http://purl.org/dc/elements/1.1/"
   xmlns:cc="http://creativecommons.org/ns#"
   xmlns:rdf="http://www.w3.org/1999/02/22-rdf-syntax-ns#"
   xmlns:svg="http://www.w3.org/2000/svg"
   xmlns="http://www.w3.org/2000/svg"
   xmlns:sodipodi="http://sodipodi.sourceforge.net/DTD/sodipodi-0.dtd"
   xmlns:inkscape="http://www.inkscape.org/namespaces/inkscape"
   version="1.1"
   id="svg1291"
   xml:space="preserve"
   width="1000"
   height="1000"
   viewBox="0 0 1000 1000"
   sodipodi:docname="Player_FM.svg"
   inkscape:version="0.92.2 (5c3e80d, 2017-08-06)"
   inkscape:label="circle"><metadata
     id="metadata1297"><rdf:RDF><cc:Work
         rdf:about=""><dc:format>image/svg+xml</dc:format><dc:type
           rdf:resource="http://purl.org/dc/dcmitype/StillImage" /><dc:title /></cc:Work></rdf:RDF></metadata><defs
     id="defs1295"><clipPath
       clipPathUnits="userSpaceOnUse"
       id="clipPath1309"><path
         d="M 0,512 H 512 V 0 H 0 Z"
         id="path1307"
         inkscape:connector-curvature="0" /></clipPath></defs><sodipodi:namedview
     pagecolor="#ffffff"
     bordercolor="#666666"
     borderopacity="1"
     objecttolerance="10"
     gridtolerance="10"
     guidetolerance="10"
     inkscape:pageopacity="0"
     inkscape:pageshadow="2"
     inkscape:window-width="1280"
     inkscape:window-height="961"
     id="namedview1293"
     showgrid="false"
     inkscape:zoom="0.48889803"
     inkscape:cx="426.62343"
     inkscape:cy="430.91152"
     inkscape:window-x="-8"
     inkscape:window-y="44"
     inkscape:window-maximized="1"
     inkscape:current-layer="svg1291"
     fit-margin-top="0"
     fit-margin-left="0"
     fit-margin-right="0"
     fit-margin-bottom="0" /><circle
     style="opacity:1;fill:#ea1834;fill-opacity:1;fill-rule:nonzero;stroke:none;stroke-width:34.87042236;stroke-linecap:round;stroke-linejoin:round;stroke-miterlimit:4;stroke-dasharray:none;stroke-opacity:1"
     id="circle"
     cx="500"
     cy="-500"
     transform="scale(1,-1)"
     r="500" /><g
     inkscape:groupmode="layer"
     id="layer1"
     inkscape:label="guide"><g
       id="g1443"
       transform="matrix(1.0630952,0,0,1.0632629,-5.7171772,-5.1389606)"
       style="fill:#c8122a;fill-opacity:1;stroke:none"><path
         id="path1420"
         d="m 560.34,118.32 c -24.6,4.16 -30.38,42.38 -6.92,52.2 102.52,30.65 187.62,113.14 221.31,214.72 3.26,13.96 13.59,28.53 29.24,28.81 18.21,1.84 33.7,-17.1 29.38,-34.63 -34.58,-116.93 -127.57,-214.5 -242.36,-255.39 -9.82,-3.25 -20.1,-8.22 -30.65,-5.71 M 406.4,172.49 c -82.14,16.81 -155,71.25 -198.12,142.74 -53.94,87.88 -59.54,203.14 -14.4,295.84 45.7,98.18 145.97,168.36 254.1,176.66 66.99,6.41 136.02,-9.99 193.08,-45.68 68.87,-42.76 120.48,-113.15 138.68,-192.32 6.28,-29.58 -14.03,-60.77 -42.08,-70.41 -27.03,-10.42 -60.25,-0.21 -76.67,23.68 -11.64,16.03 -13.83,36.51 -23.19,53.72 -27.24,56.07 -85.19,95.3 -147.37,99.79 -78.07,7.46 -157,-42.6 -183.67,-116.32 -20.01,-52.07 -14.29,-113.47 15.97,-160.44 24.04,-38.65 63.43,-67.42 107.6,-78.51 32.21,-8.37 53.4,-44.27 45.92,-76.55 -5.93,-31.51 -37.71,-56.02 -69.85,-52.2 m 140.02,37 c -12.52,1.45 -23.12,11.89 -24.74,24.39 -2.1,13.54 7.04,27.16 19.81,31.54 65.26,24.38 118.4,78.38 142.4,143.71 4.29,14.11 20.3,23.78 34.69,19.5 15.19,-3.52 25.29,-21.06 19.69,-35.86 -27.64,-80.02 -91.57,-146.52 -170.11,-177.96 -7.01,-2.46 -14.07,-6.35 -21.74,-5.32 m -18.02,96.08 c -24.63,2.72 -32.03,40.55 -9.57,51.58 33.32,15.78 59.13,44.07 75.11,76.96 15.32,24.72 58.33,6.61 50.69,-21.85 -15.14,-40.87 -47.04,-74.38 -83.86,-97 -9.65,-5.93 -20.66,-11.67 -32.37,-9.69 z"
         inkscape:connector-curvature="0"
         style="opacity:1;fill:#c8122a;fill-opacity:1;stroke:none"
         sodipodi:nodetypes="cccccccccccccccccccccccccccccccccccc" /><path
         id="path1422"
         d="m 560.34,118.32 c 10.55,-2.51 20.83,2.46 30.65,5.71 114.79,40.89 207.78,138.46 242.36,255.39 4.32,17.53 -11.17,36.47 -29.38,34.63 C 788.32,413.77 777.99,399.2 774.73,385.24 741.04,283.66 655.94,201.17 553.42,170.52 c -23.46,-9.82 -17.68,-48.04 6.92,-52.2 z"
         inkscape:connector-curvature="0"
         style="opacity:1;fill:#c8122a;fill-opacity:1;stroke:none" /><path
         id="path1424"
         d="m 406.4,172.49 c 32.14,-3.82 63.92,20.69 69.85,52.2 7.48,32.28 -13.71,68.18 -45.92,76.55 -44.17,11.09 -83.56,39.86 -107.6,78.51 -30.26,46.97 -35.98,108.37 -15.97,160.44 26.67,73.72 105.6,123.78 183.67,116.32 62.18,-4.49 120.13,-43.72 147.37,-99.79 9.36,-17.21 11.55,-37.69 23.19,-53.72 16.42,-23.89 49.64,-34.1 76.67,-23.68 28.05,9.64 48.36,40.83 42.08,70.41 C 761.54,628.9 709.93,699.29 641.06,742.05 584,777.74 514.97,794.14 447.98,787.73 339.85,779.43 239.58,709.25 193.88,611.07 148.74,518.37 154.34,403.11 208.28,315.23 251.4,243.74 324.26,189.3 406.4,172.49 Z"
         inkscape:connector-curvature="0"
         style="opacity:1;fill:#c8122a;fill-opacity:1;stroke:none" /><path
         id="path1426"
         d="m 546.42,209.49 c 7.67,-1.03 14.73,2.86 21.74,5.32 78.54,31.44 142.47,97.94 170.11,177.96 5.6,14.8 -4.5,32.34 -19.69,35.86 -14.39,4.28 -30.4,-5.39 -34.69,-19.5 -24,-65.33 -77.14,-119.33 -142.4,-143.71 -12.77,-4.38 -21.91,-18 -19.81,-31.54 1.62,-12.5 12.22,-22.94 24.74,-24.39 z"
         inkscape:connector-curvature="0"
         style="opacity:1;fill:#c8122a;fill-opacity:1;stroke:none" /><path
         id="path1428"
         d="m 528.4,305.57 c 11.71,-1.98 22.72,3.76 32.37,9.69 36.82,22.62 68.72,56.13 83.86,97 7.64,28.46 -35.37,46.57 -50.69,21.85 -15.98,-32.89 -41.79,-61.18 -75.11,-76.96 -22.46,-11.03 -15.06,-48.86 9.57,-51.58 z"
         inkscape:connector-curvature="0"
         style="opacity:1;fill:#c8122a;fill-opacity:1;stroke:none" /></g></g></svg>