<?xml version="1.0" encoding="UTF-8" standalone="no"?>
<svg
   xmlns:dc="http://purl.org/dc/elements/1.1/"
   xmlns:cc="http://creativecommons.org/ns#"
   xmlns:rdf="http://www.w3.org/1999/02/22-rdf-syntax-ns#"
   xmlns:svg="http://www.w3.org/2000/svg"
   xmlns="http://www.w3.org/2000/svg"
   xmlns:sodipodi="http://sodipodi.sourceforge.net/DTD/sodipodi-0.dtd"
   xmlns:inkscape="http://www.inkscape.org/namespaces/inkscape"
   viewBox="0 0 85.199997 86"
   enable-background="new 0 0 275 86"
   version="1.1"
   id="svg4"
   sodipodi:docname="QuizUp.svg"
   inkscape:version="0.92.4 (5da689c313, 2019-01-14)"
   width="85.199997"
   height="86">
  <metadata
     id="metadata10">
    <rdf:RDF>
      <cc:Work
         rdf:about="">
        <dc:format>image/svg+xml</dc:format>
        <dc:type
           rdf:resource="http://purl.org/dc/dcmitype/StillImage" />
        <dc:title></dc:title>
      </cc:Work>
    </rdf:RDF>
  </metadata>
  <defs
     id="defs8" />
  <sodipodi:namedview
     pagecolor="#ffffff"
     bordercolor="#666666"
     borderopacity="1"
     objecttolerance="10"
     gridtolerance="10"
     guidetolerance="10"
     inkscape:pageopacity="0"
     inkscape:pageshadow="2"
     inkscape:window-width="1920"
     inkscape:window-height="1017"
     id="namedview6"
     showgrid="false"
     inkscape:zoom="4.130909"
     inkscape:cx="32.983231"
     inkscape:cy="8.818873"
     inkscape:window-x="1272"
     inkscape:window-y="-8"
     inkscape:window-maximized="1"
     inkscape:current-layer="svg4"
     fit-margin-top="0"
     fit-margin-left="0"
     fit-margin-right="0"
     fit-margin-bottom="0" />
  <ellipse
     style="fill:#ff5555;fill-opacity:1;stroke-width:0.95356649"
     id="path817-4"
     cx="42.599995"
     cy="43.000004"
     rx="39.518856"
     ry="39.889927" />
  <path
     d="M 42.6,0 C 19.1,0 0,19.3 0,43 0,66.7 19.1,86 42.6,86 66.1,86 85.2,66.7 85.2,43 85.2,19.3 66.1,0 42.6,0 Z m 0,80.4 C 22.1,80.4 5.6,63.7 5.6,43 5.6,22.3 22.2,5.6000002 42.7,5.6000002 63.2,5.6000002 79.8,22.3 79.8,43 79.7,63.7 63.1,80.4 42.6,80.4 Z M 42.6,17.6 24.1,50 H 42.6 V 68.4 L 61.1,36 H 42.6 Z"
     id="path2-6"
     inkscape:connector-curvature="0"
     style="fill:#ff7d7d;fill-opacity:1"
     sodipodi:nodetypes="sssssssscsccccccc" />
</svg>
