<?xml version="1.0" encoding="UTF-8" standalone="no"?>
<!-- Created with Inkscape (http://www.inkscape.org/) -->

<svg
   xmlns:dc="http://purl.org/dc/elements/1.1/"
   xmlns:cc="http://creativecommons.org/ns#"
   xmlns:rdf="http://www.w3.org/1999/02/22-rdf-syntax-ns#"
   xmlns:svg="http://www.w3.org/2000/svg"
   xmlns="http://www.w3.org/2000/svg"
   xmlns:sodipodi="http://sodipodi.sourceforge.net/DTD/sodipodi-0.dtd"
   xmlns:inkscape="http://www.inkscape.org/namespaces/inkscape"
   version="1.1"
   id="svg1291"
   xml:space="preserve"
   width="1000"
   height="1000"
   viewBox="0 0 1000 1000"
   sodipodi:docname="Reddit.svg"
   inkscape:version="0.92.2 (5c3e80d, 2017-08-06)"
   inkscape:label="circle"><metadata
     id="metadata1297"><rdf:RDF><cc:Work
         rdf:about=""><dc:format>image/svg+xml</dc:format><dc:type
           rdf:resource="http://purl.org/dc/dcmitype/StillImage" /><dc:title></dc:title></cc:Work></rdf:RDF></metadata><defs
     id="defs1295"><clipPath
       clipPathUnits="userSpaceOnUse"
       id="clipPath1309"><path
         d="M 0,512 H 512 V 0 H 0 Z"
         id="path1307"
         inkscape:connector-curvature="0" /></clipPath></defs><sodipodi:namedview
     pagecolor="#ffffff"
     bordercolor="#666666"
     borderopacity="1"
     objecttolerance="10"
     gridtolerance="10"
     guidetolerance="10"
     inkscape:pageopacity="0"
     inkscape:pageshadow="2"
     inkscape:window-width="1920"
     inkscape:window-height="1017"
     id="namedview1293"
     showgrid="false"
     inkscape:zoom="0.17285156"
     inkscape:cx="213.02172"
     inkscape:cy="702.62752"
     inkscape:window-x="1272"
     inkscape:window-y="-8"
     inkscape:window-maximized="1"
     inkscape:current-layer="layer1"
     fit-margin-top="0"
     fit-margin-left="0"
     fit-margin-right="0"
     fit-margin-bottom="0" /><circle
     style="opacity:1;fill:#ff4500;fill-opacity:1;fill-rule:nonzero;stroke:none;stroke-width:34.87042236;stroke-linecap:round;stroke-linejoin:round;stroke-miterlimit:4;stroke-dasharray:none;stroke-opacity:1"
     id="circle"
     cx="500"
     cy="-500"
     transform="scale(1,-1)"
     r="500" /><g
     inkscape:groupmode="layer"
     id="layer1"
     inkscape:label="guide"><g
       id="g1157"
       transform="matrix(1.2022146,0,0,1.2022146,-540.36612,73.166858)"
       style="fill:#d83a00;fill-opacity:1"><g
         style="display:inline;fill:#d83a00;fill-opacity:1"
         transform="translate(-0.4684983,0.16081395)"
         inkscape:label="Background"
         id="layer2" /><g
         style="display:inline;fill:#d83a00;fill-opacity:1"
         inkscape:label="Reddit icon"
         id="layer3"><path
           sodipodi:nodetypes="ssssssscssscsssssssssssssscsscsssssssscsssscsccscsssssssscss"
           inkscape:connector-curvature="0"
           id="path4245-1"
           d="m 931.98034,577.45321 c 26.3239,-6.17409 45.3837,-12.79304 64.10145,-22.2606 58.25581,-29.46629 94.72731,-78.38348 94.72731,-127.05238 0,-14.71319 0.3162,-15.39845 12.5791,-27.26896 9.7331,-9.42155 13.5416,-15.50925 16.8333,-26.90661 3.9206,-13.57578 3.9332,-15.83328 0.1614,-28.80832 -10.581,-36.39679 -48.4274,-52.79416 -82.2987,-35.65678 l -13.0913,6.62357 -13.4911,-8.30111 c -25.945,-15.96421 -72.09035,-31.59944 -101.84416,-34.50758 -8.15257,-0.7968 -18.43042,-1.99071 -22.83983,-2.65315 l -8.01697,-1.20445 3.44276,-17.23366 c 1.89351,-9.47854 5.83909,-28.18519 8.768,-41.57035 2.92886,-13.38516 6.5987,-31.54158 8.15515,-40.34762 2.24964,-12.72815 3.78436,-16.01095 7.48515,-16.01095 2.56041,0 20.87496,3.45836 40.69894,7.68525 19.82403,4.22689 36.4515,7.68525 36.94991,7.68525 0.49846,0 1.61654,3.78628 2.48472,8.41398 2.19646,11.7081 7.90017,18.97828 19.55303,24.92312 27.9664,14.26741 59.4442,-4.74235 59.4442,-35.89887 0,-38.60139 -47.5961,-55.45974 -71.78464,-25.42581 -4.67479,5.80446 -7.02015,6.86837 -11.52789,5.22926 -3.11253,-1.13176 -24.4963,-5.91291 -47.5196,-10.62478 -30.49229,-6.24044 -43.00005,-7.84823 -46.05659,-5.92017 -4.6667,2.94369 -4.06413,0.76869 -16.92123,61.07818 -15.29262,71.73428 -16.21643,75.79701 -17.53452,77.11506 -0.69671,0.69677 -11.75546,2.352 -24.57496,3.67828 -38.89239,4.02377 -81.63338,17.756 -110.448,35.48581 l -13.32338,8.19796 -13.08474,-6.52038 c -34.15574,-17.02059 -72.06565,-0.61631 -82.64054,35.75994 -3.77194,12.97504 -3.75925,15.23254 0.16135,28.80832 3.2916,11.39736 7.10013,17.48506 16.83322,26.90661 12.26305,11.87051 12.57912,12.55577 12.57912,27.26896 0,67.23019 69.09646,131.38929 161.3905,149.85823 30.57598,6.11856 32.65061,6.27462 71.72911,5.39657 25.53939,-0.5738 43.94899,-2.43037 58.92038,-5.94182 z M 824.23937,528.62939 c -21.19645,-4.77214 -45.16887,-15.41917 -52.19308,-23.18083 -5.60104,-6.18908 -3.20632,-15.56461 3.97553,-15.56461 2.79777,0 9.34858,2.90919 14.55747,6.4648 35.17255,24.00925 114.54283,23.92224 149.8326,-0.16398 11.3669,-7.75831 20.6689,-7.54414 21.81555,0.50223 0.53956,3.78658 -1.87651,7.55336 -7.6881,11.98607 -28.21732,21.52239 -84.83157,30.19336 -130.29997,19.95662 z M 759.5935,433.4392 c -13.19722,-7.16056 -19.72329,-18.58338 -19.73519,-34.54321 -0.0131,-18.29342 8.48426,-30.13118 25.74565,-35.86449 12.28488,-4.0804 13.75182,-4.08027 24.44215,0.002 28.76888,10.98694 34.65616,46.87829 10.83564,66.05838 -12.41558,9.99694 -27.87516,11.62458 -41.28825,4.34693 z m 178.7912,1.18109 c -12.23004,-6.36072 -19.06683,-14.09364 -21.96014,-24.83864 -5.35258,-19.87773 4.72407,-39.2797 24.27874,-46.74775 10.69033,-4.08267 12.15727,-4.0828 24.4422,-0.002 17.26139,5.73331 25.75924,17.57107 25.74564,35.86449 -0.0131,16.25027 -6.66809,27.58082 -20.2819,34.52606 -12.24562,6.24725 -21.83129,6.60369 -32.22454,1.19824 z"
           style="display:inline;fill:#d83a00;fill-opacity:1;stroke-width:4.37280703" /></g></g></g></svg>