<?xml version="1.0" encoding="UTF-8" standalone="no"?>
<svg
   xmlns:dc="http://purl.org/dc/elements/1.1/"
   xmlns:cc="http://creativecommons.org/ns#"
   xmlns:rdf="http://www.w3.org/1999/02/22-rdf-syntax-ns#"
   xmlns:svg="http://www.w3.org/2000/svg"
   xmlns="http://www.w3.org/2000/svg"
   xmlns:sodipodi="http://sodipodi.sourceforge.net/DTD/sodipodi-0.dtd"
   xmlns:inkscape="http://www.inkscape.org/namespaces/inkscape"
   id="Layer_1"
   data-name="Layer 1"
   viewBox="0 0 28.054626 28.054626"
   version="1.1"
   sodipodi:docname="Skype.svg"
   width="28.054626"
   height="28.054626"
   inkscape:version="0.92.2 (5c3e80d, 2017-08-06)">
  <metadata
     id="metadata13">
    <rdf:RDF>
      <cc:Work
         rdf:about="">
        <dc:format>image/svg+xml</dc:format>
        <dc:type
           rdf:resource="http://purl.org/dc/dcmitype/StillImage" />
        <dc:title>_</dc:title>
      </cc:Work>
    </rdf:RDF>
  </metadata>
  <sodipodi:namedview
     pagecolor="#ffffff"
     bordercolor="#666666"
     borderopacity="1"
     objecttolerance="10"
     gridtolerance="10"
     guidetolerance="10"
     inkscape:pageopacity="0"
     inkscape:pageshadow="2"
     inkscape:window-width="1920"
     inkscape:window-height="1017"
     id="namedview11"
     showgrid="false"
     fit-margin-top="0"
     fit-margin-left="0"
     fit-margin-right="0"
     fit-margin-bottom="0"
     inkscape:zoom="19.07168"
     inkscape:cx="12.989387"
     inkscape:cy="11.181808"
     inkscape:window-x="1272"
     inkscape:window-y="-8"
     inkscape:window-maximized="1"
     inkscape:current-layer="Layer_1" />
  <defs
     id="defs4">
    <style
       id="style2">.cls-1{fill:#1eb7ec;}</style>
  </defs>
  <title
     id="title6">_</title>
  <rect
     style="opacity:1;fill:#129fd0;fill-opacity:1;fill-rule:nonzero;stroke:none;stroke-width:0.09018815;stroke-linecap:square;stroke-linejoin:round;stroke-miterlimit:4;stroke-dasharray:none;stroke-opacity:1"
     id="rect841"
     width="14"
     height="17"
     x="7"
     y="5.5546265" />
  <path
     class="cls-1"
     d="m 27.017313,16.317313 a 13.2,13.2 0 0 0 -15.28,-15.2799999 7.84,7.84 0 0 0 -10.6999999,10.6999999 13.19,13.19 0 0 0 15.2799999,15.28 7.84,7.84 0 0 0 10.7,-10.7 z m -12.94,6.14 c -4.6799999,0 -6.8299999,-2.37 -6.8299999,-4.11 a 1.51,1.51 0 0 1 1.6,-1.51 c 1.9999999,0 1.4799999,3 5.2199999,3 1.91,0 3,-1.15 3,-2.22 0,-0.65 -0.37,-1.37 -1.63,-1.68 l -4.17,-1 c -3.3499999,-0.85 -3.9399999,-2.7 -3.9399999,-4.42 0,-3.5699999 3.2799999,-4.8599999 6.4099999,-4.8599999 2.88,0 6.31,1.58 6.31,3.73 a 1.49,1.49 0 0 1 -1.67,1.4199999 c -1.71,0 -1.43,-2.3899999 -4.87,-2.3899999 -1.71,0 -2.61,0.8 -2.61,1.9099999 0,1.11 1.32,1.49 2.49,1.76 l 3.08,0.69 c 3.38,0.76 4.28,2.73 4.28,4.6 0.05,2.84 -2.22,5.08 -6.67,5.08 z"
     id="path8"
     inkscape:connector-curvature="0"
     style="fill:#1eb7ec" />
</svg>
