<?xml version="1.0" encoding="UTF-8" standalone="no"?>
<!-- Created with Inkscape (http://www.inkscape.org/) -->

<svg
   xmlns:dc="http://purl.org/dc/elements/1.1/"
   xmlns:cc="http://creativecommons.org/ns#"
   xmlns:rdf="http://www.w3.org/1999/02/22-rdf-syntax-ns#"
   xmlns:svg="http://www.w3.org/2000/svg"
   xmlns="http://www.w3.org/2000/svg"
   xmlns:sodipodi="http://sodipodi.sourceforge.net/DTD/sodipodi-0.dtd"
   xmlns:inkscape="http://www.inkscape.org/namespaces/inkscape"
   version="1.1"
   id="svg1291"
   xml:space="preserve"
   width="1000"
   height="1000"
   viewBox="0 0 1000 1000"
   sodipodi:docname="Spotify.svg"
   inkscape:version="0.92.2 (5c3e80d, 2017-08-06)"
   inkscape:label="circle"><metadata
     id="metadata1297"><rdf:RDF><cc:Work
         rdf:about=""><dc:format>image/svg+xml</dc:format><dc:type
           rdf:resource="http://purl.org/dc/dcmitype/StillImage" /><dc:title></dc:title></cc:Work></rdf:RDF></metadata><defs
     id="defs1295"><clipPath
       clipPathUnits="userSpaceOnUse"
       id="clipPath1309"><path
         d="M 0,512 H 512 V 0 H 0 Z"
         id="path1307"
         inkscape:connector-curvature="0" /></clipPath></defs><sodipodi:namedview
     pagecolor="#ffffff"
     bordercolor="#666666"
     borderopacity="1"
     objecttolerance="10"
     gridtolerance="10"
     guidetolerance="10"
     inkscape:pageopacity="0"
     inkscape:pageshadow="2"
     inkscape:window-width="1920"
     inkscape:window-height="1017"
     id="namedview1293"
     showgrid="false"
     inkscape:zoom="0.48889803"
     inkscape:cx="457.70556"
     inkscape:cy="488.97146"
     inkscape:window-x="1272"
     inkscape:window-y="-8"
     inkscape:window-maximized="1"
     inkscape:current-layer="layer1"
     fit-margin-top="0"
     fit-margin-left="0"
     fit-margin-right="0"
     fit-margin-bottom="0" /><circle
     style="opacity:1;fill:#1ed760;fill-opacity:1;fill-rule:nonzero;stroke:none;stroke-width:34.87042236;stroke-linecap:round;stroke-linejoin:round;stroke-miterlimit:4;stroke-dasharray:none;stroke-opacity:1"
     id="circle"
     cx="500"
     cy="-500"
     transform="scale(1,-1)"
     r="500" /><g
     inkscape:groupmode="layer"
     id="layer1"
     inkscape:label="guide"><path
       id="path1118"
       d="m 729.29243,721.1478 c -8.95591,14.68807 -28.18128,19.34525 -42.86898,10.32942 -117.39418,-71.70877 -265.17878,-87.94922 -439.2222,-48.184 -16.77143,3.82128 -33.48915,-6.68724 -37.31035,-23.46507 -3.8391,-16.77782 6.62738,-33.49593 23.44063,-37.31722 190.4626,-43.53276 353.83645,-24.77863 485.63175,55.76687 14.6877,9.01583 19.34479,28.18195 10.32915,42.87 z m 61.19879,-136.16305 c -11.28447,18.36007 -35.28634,24.15168 -53.61612,12.86697 -134.39847,-82.62929 -339.2681,-106.5541 -498.23568,-58.29845 -20.61654,6.2275 -42.39137,-5.3916 -48.64857,-25.97279 -6.20943,-20.61701 5.41535,-42.35058 25.99605,-48.61986 181.58428,-55.09812 407.32717,-28.40887 561.6675,66.4366 18.32978,11.28471 24.1213,35.28715 12.83682,53.5935 z m 5.25413,-141.76962 C 634.59852,347.49795 368.72717,338.69707 214.87038,385.39433 c -24.70638,7.4933 -50.83376,-6.45438 -58.32093,-31.16136 -7.48715,-24.71894 6.44825,-50.82905 31.17257,-58.34025 176.61675,-53.6174 470.2216,-43.25814 655.75238,66.88438 22.2704,13.1894 29.5546,41.89083 16.3595,64.08413 -13.1353,22.22314 -41.9137,29.54927 -64.06467,16.3539 z"
       inkscape:connector-curvature="0"
       style="fill:#19b350;fill-opacity:1;stroke-width:5.97068405"
       sodipodi:nodetypes="ccccccccccccccccccccccc" /></g></svg>