<?xml version="1.0" encoding="UTF-8" standalone="no"?>
<!-- Created with Inkscape (http://www.inkscape.org/) -->

<svg
   xmlns:dc="http://purl.org/dc/elements/1.1/"
   xmlns:cc="http://creativecommons.org/ns#"
   xmlns:rdf="http://www.w3.org/1999/02/22-rdf-syntax-ns#"
   xmlns:svg="http://www.w3.org/2000/svg"
   xmlns="http://www.w3.org/2000/svg"
   xmlns:sodipodi="http://sodipodi.sourceforge.net/DTD/sodipodi-0.dtd"
   xmlns:inkscape="http://www.inkscape.org/namespaces/inkscape"
   version="1.1"
   id="svg1291"
   xml:space="preserve"
   width="1000"
   height="1000"
   viewBox="0 0 1000 1000"
   sodipodi:docname="Steam.svg"
   inkscape:version="0.92.2 (5c3e80d, 2017-08-06)"
   inkscape:label="circle"><metadata
     id="metadata1297"><rdf:RDF><cc:Work
         rdf:about=""><dc:format>image/svg+xml</dc:format><dc:type
           rdf:resource="http://purl.org/dc/dcmitype/StillImage" /><dc:title /></cc:Work></rdf:RDF></metadata><defs
     id="defs1295"><clipPath
       clipPathUnits="userSpaceOnUse"
       id="clipPath1309"><path
         d="M 0,512 H 512 V 0 H 0 Z"
         id="path1307"
         inkscape:connector-curvature="0" /></clipPath><linearGradient
       y2="232.87497"
       x1="116.68872"
       x2="116.68872"
       id="a"
       gradientTransform="scale(0.99946338,1.0005369)"
       y1="0"
       gradientUnits="userSpaceOnUse"><stop
         id="stop3143"
         offset="0"
         stop-color="#111D2E" /><stop
         id="stop3145"
         offset=".21248"
         stop-color="#051839" /><stop
         id="stop3147"
         offset=".40695"
         stop-color="#0A1B48" /><stop
         id="stop3149"
         offset=".58110"
         stop-color="#132E62" /><stop
         id="stop3151"
         offset=".73760"
         stop-color="#144B7E" /><stop
         id="stop3153"
         offset=".87279"
         stop-color="#136497" /><stop
         id="stop3155"
         offset="1"
         stop-color="#1387B8" /></linearGradient><linearGradient
       y2="232.87497"
       x1="116.68872"
       x2="116.68872"
       id="a-4"
       gradientTransform="matrix(0.99946338,0,0,1.0005369,-675.43505,-247.32204)"
       y1="0"
       gradientUnits="userSpaceOnUse"><stop
         id="stop3237"
         offset="0"
         stop-color="#111D2E" /><stop
         id="stop3239"
         offset=".21248"
         stop-color="#051839" /><stop
         id="stop3241"
         offset=".40695"
         stop-color="#0A1B48" /><stop
         id="stop3243"
         offset=".58110"
         stop-color="#132E62" /><stop
         id="stop3245"
         offset=".73760"
         stop-color="#144B7E" /><stop
         id="stop3247"
         offset=".87279"
         stop-color="#136497" /><stop
         id="stop3249"
         offset="1"
         stop-color="#1387B8" /></linearGradient></defs><sodipodi:namedview
     pagecolor="#ffffff"
     bordercolor="#666666"
     borderopacity="1"
     objecttolerance="10"
     gridtolerance="10"
     guidetolerance="10"
     inkscape:pageopacity="0"
     inkscape:pageshadow="2"
     inkscape:window-width="1280"
     inkscape:window-height="961"
     id="namedview1293"
     showgrid="false"
     inkscape:zoom="0.48889803"
     inkscape:cx="250.59831"
     inkscape:cy="509.43516"
     inkscape:window-x="-8"
     inkscape:window-y="44"
     inkscape:window-maximized="1"
     inkscape:current-layer="svg1291"
     fit-margin-top="0"
     fit-margin-left="0"
     fit-margin-right="0"
     fit-margin-bottom="0"
     showguides="false" /><circle
     style="opacity:1;fill:#1960a1;fill-opacity:1;fill-rule:nonzero;stroke:none;stroke-width:34.87042236;stroke-linecap:round;stroke-linejoin:round;stroke-miterlimit:4;stroke-dasharray:none;stroke-opacity:1"
     id="circle"
     cx="500"
     cy="-500"
     transform="scale(1,-1)"
     r="500" /><g
     inkscape:groupmode="layer"
     id="layer1"
     inkscape:label="guide"><g
       id="g3180"
       transform="matrix(4.294588,0,0,4.2918455,-0.64372567,-1.5000001e-6)"><path
         id="path3162"
         d="m 110.5,87.322 c 0,0.196 0,0.392 0.01,0.576 L 82.002,129.31 c -4.618,-0.21 -9.252,0.6 -13.646,2.41 -1.937,0.79 -3.752,1.76 -5.455,2.88 L 0.302,108.83 c 4.9e-4,0 -1.4485,23.83 4.588,41.59 l 44.254,18.26 c 2.222,9.93 9.034,18.64 19.084,22.83 16.443,6.87 35.402,-0.96 42.242,-17.41 1.78,-4.3 2.61,-8.81 2.49,-13.31 l 40.79,-29.15 c 0.33,0.01 0.67,0.02 1,0.02 24.41,0 44.25,-19.9 44.25,-44.338 C 199,62.882 179.16,43 154.75,43 130.35,43 110.5,62.882 110.5,87.322 Z m -6.84,83.918 c -5.294,12.71 -19.9,18.74 -32.596,13.45 -5.857,-2.44 -10.279,-6.91 -12.83,-12.24 l 14.405,5.97 c 9.363,3.9 20.105,-0.54 23.997,-9.9 3.904,-9.37 -0.525,-20.13 -9.883,-24.03 l -14.891,-6.17 c 5.746,-2.18 12.278,-2.26 18.381,0.28 6.153,2.56 10.927,7.38 13.457,13.54 2.53,6.16 2.52,12.96 -0.04,19.1 m 51.09,-54.38 c -16.25,0 -29.48,-13.25 -29.48,-29.538 0,-16.275 13.23,-29.529 29.48,-29.529 16.26,0 29.49,13.254 29.49,29.529 0,16.288 -13.23,29.538 -29.49,29.538 M 132.66,87.277 c 0,-12.253 9.92,-22.191 22.14,-22.191 12.23,0 22.15,9.938 22.15,22.191 0,12.254 -9.92,22.183 -22.15,22.183 -12.22,0 -22.14,-9.929 -22.14,-22.183 z"
         inkscape:connector-curvature="0"
         style="fill:#144b7e;fill-opacity:1" /></g></g></svg>