<?xml version="1.0" encoding="UTF-8" standalone="no"?>
<!-- Created with Inkscape (http://www.inkscape.org/) -->

<svg
   xmlns:dc="http://purl.org/dc/elements/1.1/"
   xmlns:cc="http://creativecommons.org/ns#"
   xmlns:rdf="http://www.w3.org/1999/02/22-rdf-syntax-ns#"
   xmlns:svg="http://www.w3.org/2000/svg"
   xmlns="http://www.w3.org/2000/svg"
   xmlns:sodipodi="http://sodipodi.sourceforge.net/DTD/sodipodi-0.dtd"
   xmlns:inkscape="http://www.inkscape.org/namespaces/inkscape"
   version="1.1"
   id="svg1291"
   xml:space="preserve"
   width="1000"
   height="1000"
   viewBox="0 0 1000 1000"
   sodipodi:docname="Tumblr.svg"
   inkscape:version="0.92.2 (5c3e80d, 2017-08-06)"
   inkscape:label="circle"><metadata
     id="metadata1297"><rdf:RDF><cc:Work
         rdf:about=""><dc:format>image/svg+xml</dc:format><dc:type
           rdf:resource="http://purl.org/dc/dcmitype/StillImage" /><dc:title /></cc:Work></rdf:RDF></metadata><defs
     id="defs1295"><clipPath
       clipPathUnits="userSpaceOnUse"
       id="clipPath1309"><path
         d="M 0,512 H 512 V 0 H 0 Z"
         id="path1307"
         inkscape:connector-curvature="0" /></clipPath><style
       id="style70">.cls-1{fill:#39475d;}</style></defs><sodipodi:namedview
     pagecolor="#ffffff"
     bordercolor="#666666"
     borderopacity="1"
     objecttolerance="10"
     gridtolerance="10"
     guidetolerance="10"
     inkscape:pageopacity="0"
     inkscape:pageshadow="2"
     inkscape:window-width="1280"
     inkscape:window-height="961"
     id="namedview1293"
     showgrid="false"
     inkscape:zoom="0.34570312"
     inkscape:cx="510.53207"
     inkscape:cy="433.48552"
     inkscape:window-x="-8"
     inkscape:window-y="44"
     inkscape:window-maximized="1"
     inkscape:current-layer="svg1291"
     fit-margin-top="0"
     fit-margin-left="0"
     fit-margin-right="0"
     fit-margin-bottom="0" /><circle
     style="opacity:1;fill:#485a76;fill-opacity:1;fill-rule:nonzero;stroke:none;stroke-width:34.87042236;stroke-linecap:round;stroke-linejoin:round;stroke-miterlimit:4;stroke-dasharray:none;stroke-opacity:1"
     id="circle"
     cx="500"
     cy="-500"
     transform="scale(1,-1)"
     r="500" /><g
     inkscape:groupmode="layer"
     id="layer1"
     inkscape:label="guide"><path
       id="path76"
       d="M 687.31146,780.43087 C 665.65472,803.55999 615.46686,819.25893 570.52498,820 h -4.93395 C 414.60817,820 381.81591,708.9958 381.81591,644.20111 V 464.18983 h -59.48046 a 12.471395,12.471395 0 0 1 -12.4714,-12.47139 v -85.00831 a 21.178945,21.178945 0 0 1 14.10954,-19.95034 C 401.48346,319.4573 425.79244,251.81534 429.39052,200.39887 430.36561,186.65986 437.55203,180 449.47736,180 h 88.65516 a 12.471395,12.471395 0 0 1 12.47139,12.47138 v 143.97197 h 103.77877 a 12.471395,12.471395 0 0 1 12.48115,12.43239 v 102.16013 a 12.471395,12.471395 0 0 1 -12.48115,12.46165 H 550.12611 v 166.47704 c 0,41.80208 27.54628,53.3374 44.5616,53.3374 16.32299,-0.39004 32.39246,-5.36301 40.44671,-8.6003 5.9773,-2.39872 11.23303,-3.98812 15.93296,-2.80826 4.37815,1.0921 7.25467,4.19289 9.1951,9.8484 l 27.50727,80.34738 c 2.23296,6.4356 4.15388,13.40749 -0.45829,18.33169 z"
       class="cls-1"
       inkscape:connector-curvature="0"
       style="fill:#39475d;fill-opacity:1;stroke-width:0.97508955" /></g></svg>