<?xml version="1.0" encoding="UTF-8" standalone="no"?>
<!-- Created with Inkscape (http://www.inkscape.org/) -->

<svg
   xmlns:dc="http://purl.org/dc/elements/1.1/"
   xmlns:cc="http://creativecommons.org/ns#"
   xmlns:rdf="http://www.w3.org/1999/02/22-rdf-syntax-ns#"
   xmlns:svg="http://www.w3.org/2000/svg"
   xmlns="http://www.w3.org/2000/svg"
   xmlns:sodipodi="http://sodipodi.sourceforge.net/DTD/sodipodi-0.dtd"
   xmlns:inkscape="http://www.inkscape.org/namespaces/inkscape"
   version="1.1"
   id="svg1291"
   xml:space="preserve"
   width="991.89191"
   height="1000"
   viewBox="0 0 991.89191 1000"
   sodipodi:docname="WhatsApp_DoubleInset.svg"
   inkscape:version="0.92.4 (5da689c313, 2019-01-14)"
   inkscape:label="circle"><metadata
     id="metadata1297"><rdf:RDF><cc:Work
         rdf:about=""><dc:format>image/svg+xml</dc:format><dc:type
           rdf:resource="http://purl.org/dc/dcmitype/StillImage" /><dc:title></dc:title></cc:Work></rdf:RDF></metadata><defs
     id="defs1295"><clipPath
       clipPathUnits="userSpaceOnUse"
       id="clipPath1309"><path
         d="M 0,512 H 512 V 0 H 0 Z"
         id="path1307"
         inkscape:connector-curvature="0" /></clipPath></defs><sodipodi:namedview
     pagecolor="#ffffff"
     bordercolor="#666666"
     borderopacity="1"
     objecttolerance="10"
     gridtolerance="10"
     guidetolerance="10"
     inkscape:pageopacity="0"
     inkscape:pageshadow="2"
     inkscape:window-width="958"
     inkscape:window-height="1008"
     id="namedview1293"
     showgrid="false"
     inkscape:zoom="0.24444902"
     inkscape:cx="450.41289"
     inkscape:cy="-111.2773"
     inkscape:window-x="2233"
     inkscape:window-y="0"
     inkscape:window-maximized="0"
     inkscape:current-layer="g833"
     fit-margin-top="0"
     fit-margin-left="0"
     fit-margin-right="0"
     fit-margin-bottom="0" /><g
     inkscape:groupmode="layer"
     id="layer1"
     inkscape:label="guide"
     style="display:inline"><g
       id="g833"
       transform="matrix(27.027027,0,0,27.027027,-27.027027,-27.027027)"
       style="display:inline"><path
         id="path819"
         d="m 10.7,32.8 0.6,0.3 c 2.5,1.5 5.3,2.2 8.1,2.2 8.8,0 16,-7.2 16,-16 0,-4.2 -1.7,-8.3 -4.7,-11.3 -3,-3 -7,-4.7 -11.3,-4.7 -8.8,0 -16,7.2 -15.9,16.1 0,3 0.9,5.9 2.4,8.4 l 0.4,0.6 -1.6,5.9 z"
         inkscape:connector-curvature="0"
         style="fill:#1fb156;fill-opacity:1" /><path
         style="fill:#25d366;fill-opacity:1"
         d="M 32.4,6.4 C 29,2.9 24.3,1 19.5,1 9.3,1 1.1,9.3 1.2,19.4 c 0,3.2 0.9,6.3 2.4,9.1 L 1,38 10.7,35.5 c 2.7,1.5 5.7,2.2 8.7,2.2 10.1,0 18.3,-8.3 18.3,-18.4 0,-4.9 -1.9,-9.5 -5.3,-12.9 z"
         id="path822"
         inkscape:connector-curvature="0" /><path
         style="fill:#1fb156;fill-opacity:1"
         d="m 19.5,34.6 c -2.7,0 -5.4,-0.7 -7.7,-2.1 L 11.2,32.2 5.4,33.7 6.9,28 6.5,27.4 C 2.1,20.3 4.2,10.9 11.4,6.5 c 7.2,-4.4 16.5,-2.3 20.9,4.9 4.4,7.2 2.3,16.5 -4.9,20.9 -2.3,1.5 -5.1,2.3 -7.9,2.3 z"
         id="path820"
         inkscape:connector-curvature="0" /><path
         style="fill:#198f46;fill-opacity:1"
         d="M 28.3,23.5 27.2,23 c 0,0 -1.6,-0.7 -2.6,-1.2 -0.1,0 -0.2,-0.1 -0.3,-0.1 -0.3,0 -0.5,0.1 -0.7,0.2 0,0 -0.1,0.1 -1.5,1.7 -0.1,0.2 -0.3,0.3 -0.5,0.3 h -0.1 c -0.1,0 -0.3,-0.1 -0.4,-0.2 L 20.6,23.5 C 19.5,23 18.5,22.4 17.7,21.6 17.5,21.4 17.2,21.2 17,21 16.3,20.3 15.6,19.5 15.1,18.6 L 15,18.4 c -0.1,-0.1 -0.1,-0.2 -0.2,-0.4 0,-0.2 0,-0.4 0.1,-0.5 0,0 0.4,-0.5 0.7,-0.8 0.2,-0.2 0.3,-0.5 0.5,-0.7 0.2,-0.3 0.3,-0.7 0.2,-1 C 16.2,14.5 15,11.8 14.7,11.2 14.5,10.9 14.3,10.8 14,10.7 h -1.1 c -0.2,0 -0.4,0.1 -0.6,0.1 l -0.1,0.1 c -0.2,0.1 -0.4,0.3 -0.6,0.4 -0.2,0.2 -0.3,0.4 -0.5,0.6 -0.7,0.9 -1.1,2 -1.1,3.1 0,0.8 0.2,1.6 0.5,2.3 l 0.1,0.3 c 0.9,1.9 2.1,3.6 3.7,5.1 l 0.4,0.4 c 0.3,0.3 0.6,0.5 0.8,0.8 2.1,1.8 4.5,3.1 7.2,3.8 0.3,0.1 0.7,0.1 1,0.2 h 1 c 0.5,0 1.1,-0.2 1.5,-0.4 0.3,-0.2 0.5,-0.2 0.7,-0.4 l 0.2,-0.2 c 0.2,-0.2 0.4,-0.3 0.6,-0.5 0.2,-0.2 0.4,-0.4 0.5,-0.6 0.2,-0.4 0.3,-0.9 0.4,-1.4 v -0.7 c 0,0 -0.1,-0.1 -0.3,-0.2 z"
         id="path821"
         inkscape:connector-curvature="0" /></g></g></svg>