<?xml version="1.0" encoding="UTF-8" standalone="no"?>
<!-- Generator: Adobe Illustrator 21.1.0, SVG Export Plug-In . SVG Version: 6.00 Build 0)  -->

<svg
   xmlns:dc="http://purl.org/dc/elements/1.1/"
   xmlns:cc="http://creativecommons.org/ns#"
   xmlns:rdf="http://www.w3.org/1999/02/22-rdf-syntax-ns#"
   xmlns:svg="http://www.w3.org/2000/svg"
   xmlns="http://www.w3.org/2000/svg"
   xmlns:sodipodi="http://sodipodi.sourceforge.net/DTD/sodipodi-0.dtd"
   xmlns:inkscape="http://www.inkscape.org/namespaces/inkscape"
   version="1.1"
   id="Layer_1"
   x="0px"
   y="0px"
   viewBox="0 0 176 176"
   xml:space="preserve"
   sodipodi:docname="YouTube.svg"
   inkscape:version="0.92.2 (5c3e80d, 2017-08-06)"
   width="176"
   height="176"><metadata
     id="metadata12"><rdf:RDF><cc:Work
         rdf:about=""><dc:format>image/svg+xml</dc:format><dc:type
           rdf:resource="http://purl.org/dc/dcmitype/StillImage" /><dc:title></dc:title></cc:Work></rdf:RDF></metadata><defs
     id="defs10" /><sodipodi:namedview
     pagecolor="#ffffff"
     bordercolor="#666666"
     borderopacity="1"
     objecttolerance="10"
     gridtolerance="10"
     guidetolerance="10"
     inkscape:pageopacity="0"
     inkscape:pageshadow="2"
     inkscape:window-width="1920"
     inkscape:window-height="1017"
     id="namedview8"
     showgrid="false"
     inkscape:zoom="1.1530662"
     inkscape:cx="2.8517918"
     inkscape:cy="82.868234"
     inkscape:window-x="1272"
     inkscape:window-y="-8"
     inkscape:window-maximized="1"
     inkscape:current-layer="Layer_1" /><style
     type="text/css"
     id="style2">
	.st0{fill:#FF0000;}
	.st1{fill:#FFFFFF;}
</style><g
     id="XMLID_184_"
     transform="translate(0,26)"><path
       id="XMLID_182_"
       class="st0"
       d="M 172.3,19.4 C 170.3,11.8 164.3,5.8 156.7,3.7 143,0 88,0 88,0 88,0 33,0 19.2,3.7 11.6,5.7 5.7,11.7 3.6,19.4 0,33.2 0,62 0,62 c 0,0 0,28.8 3.7,42.6 2,7.6 8,13.6 15.6,15.7 C 33,124 88,124 88,124 c 0,0 55,0 68.8,-3.7 7.6,-2 13.5,-8 15.6,-15.7 C 176,90.8 176,62 176,62 c 0,0 0,-28.8 -3.7,-42.6 z"
       inkscape:connector-curvature="0"
       style="fill:#ff0000" /><polygon
       id="XMLID_1355_"
       class="st1"
       points="70,35.8 70,88.2 116,62 "
       style="fill:#d80000;fill-opacity:1" /></g></svg>